<svg width="1920" height="1920" viewBox="0 0 1920 1920" fill="none" xmlns="http://www.w3.org/2000/svg">
<mask id="mask0_805_1967" style="mask-type:alpha" maskUnits="userSpaceOnUse" x="0" y="0" width="1920" height="1920">
<path fill-rule="evenodd" clip-rule="evenodd" d="M1692.9 213.333C1517.42 34.4086 1252.47 0 956.559 0C660.645 0 399.14 34.4086 220.215 213.333C82.5807 354.409 0 584.946 0 960C0 1335.05 86.0215 1565.59 223.656 1706.67C399.14 1885.59 664.086 1920 960 1920C1255.91 1920 1517.42 1885.59 1696.34 1706.67C1837.42 1565.59 1920 1335.05 1920 960C1920 584.946 1833.98 354.409 1696.34 213.333H1692.9Z" fill="#D9D9D9"/>
</mask>
<g mask="url(#mask0_805_1967)">
<g clip-path="url(#clip0_805_1967)">
<rect width="1920" height="1920" fill="#073042"/>
<rect x="-960" y="-960" width="3840" height="3840" fill="url(#paint0_linear_805_1967)"/>
<mask id="mask1_805_1967" style="mask-type:alpha" maskUnits="userSpaceOnUse" x="240" y="240" width="1440" height="1440">
<rect x="240" y="240" width="1440" height="1440" fill="#89B4F3"/>
</mask>
<g mask="url(#mask1_805_1967)">
<path d="M540 1560C507 1560 478.75 1548.25 455.25 1524.75C431.75 1501.25 420 1473 420 1440V720C420 687 431.75 658.75 455.25 635.25C478.75 611.75 507 600 540 600H660C660 517 689.25 446.25 747.75 387.75C806.25 329.25 877 300 960 300C1043 300 1113.75 329.25 1172.25 387.75C1230.75 446.25 1260 517 1260 600H1380C1413 600 1441.25 611.75 1464.75 635.25C1488.25 658.75 1500 687 1500 720V1440C1500 1473 1488.25 1501.25 1464.75 1524.75C1441.25 1548.25 1413 1560 1380 1560H540ZM960 1080C1043 1080 1113.75 1050.75 1172.25 992.25C1230.75 933.75 1260 863 1260 780H1140C1140 830 1122.5 872.5 1087.5 907.5C1052.5 942.5 1010 960 960 960C910 960 867.5 942.5 832.5 907.5C797.5 872.5 780 830 780 780H660C660 863 689.25 933.75 747.75 992.25C806.25 1050.75 877 1080 960 1080ZM780 600H1140C1140 550 1122.5 507.5 1087.5 472.5C1052.5 437.5 1010 420 960 420C910 420 867.5 437.5 832.5 472.5C797.5 507.5 780 550 780 600Z" fill="#89B4F3"/>
</g>
</g>
</g>
<defs>
<linearGradient id="paint0_linear_805_1967" x1="-960" y1="-960" x2="2880" y2="2880" gradientUnits="userSpaceOnUse">
<stop stop-color="#073042"/>
<stop offset="1"/>
</linearGradient>
<clipPath id="clip0_805_1967">
<rect width="1920" height="1920" fill="white"/>
</clipPath>
</defs>
</svg>
