<svg width="40" height="40" viewBox="0 0 40 40" fill="none" xmlns="http://www.w3.org/2000/svg">
<g clip-path="url(#clip0_797_1668)">
<path d="M6.97754 31.7881L18.8857 37.3252V20.3359L6.97754 14.7988V31.7881ZM21.1143 20.3369V37.3252L33.0225 31.7881V14.7988L21.1143 20.3369ZM20.8086 18.0459L22.5254 17.2471V9.54395H20.8086V18.0459ZM17.4365 17.2295L19.165 18.0332V9.54395H17.4365V17.2295ZM13.6523 15.4707L15.3691 16.2686V7.96484H13.6523V15.4707ZM24.6357 16.2666L26.3633 15.4629V7.96484H24.6357V16.2666ZM10.2812 13.9023L12.0088 14.7061V7.96484H10.2812V13.9023ZM28.0068 14.6982L29.7236 13.9004V7.96484H28.0068V14.6982ZM7.3252 12.5293L8.4082 13.0322V12.0928L7.3252 12.5293ZM31.5967 13.0293L32.6787 12.5264L31.5967 12.0898V13.0293ZM19.3545 6.20703L18.1211 7.91797H21.8408L20.5918 6.18652L19.3545 6.20703ZM26.5518 4.62891L25.3203 6.33887H29.04L27.79 4.60742L26.5518 4.62891ZM12.1973 4.62891L10.9648 6.33887H14.6846L13.4355 4.60742L12.1973 4.62891ZM31.5967 9.87793L35.0049 11.4746C35.0502 11.4755 35.0954 11.4875 35.1348 11.5127C35.2066 11.5586 35.25 11.6384 35.25 11.7236V33.0254C35.25 33.1226 35.1936 33.2109 35.1055 33.252L20.9697 39.8252H20.9688L20.1055 40.2266C20.0387 40.2576 19.9613 40.2576 19.8945 40.2266L19.0312 39.8252L4.89453 33.252C4.8064 33.2109 4.75 33.1226 4.75 33.0254V11.7236L4.75781 11.6611C4.7734 11.6007 4.81143 11.5471 4.86523 11.5127C4.90748 11.4857 4.95625 11.4746 5.00488 11.4756L8.4082 9.88184V6.77637C8.4082 6.72386 8.42534 6.67246 8.45605 6.62988L12.6221 0.853516L12.6621 0.80957C12.7069 0.771217 12.7649 0.75 12.8252 0.75C12.9055 0.750027 12.9813 0.788392 13.0283 0.853516L16.9717 6.32227L19.7783 2.43262L19.8184 2.38867C19.8631 2.35039 19.9212 2.3291 19.9814 2.3291C20.0616 2.32925 20.1367 2.36766 20.1836 2.43262L23.0107 6.35156L26.9766 0.853516L27.0176 0.80957C27.0623 0.771484 27.1197 0.750017 27.1797 0.75C27.26 0.75 27.3358 0.788374 27.3828 0.853516L31.4229 6.4541L31.5498 6.62988C31.5805 6.67244 31.5967 6.72392 31.5967 6.77637V9.87793Z" fill="black" stroke="white" stroke-width="0.5" stroke-linejoin="round"/>
</g>
<defs>
<clipPath id="clip0_797_1668">
<rect width="40" height="40" fill="white"/>
</clipPath>
</defs>
</svg>
